<?xml version="1.0" encoding="UTF-8" standalone="no"?>
<!DOCTYPE svg PUBLIC "-//W3C//DTD SVG 1.1//EN" "http://www.w3.org/Graphics/SVG/1.1/DTD/svg11.dtd">
<svg xmlns="http://www.w3.org/2000/svg" version="1.1" viewBox="0.00 0.00 1024.00 1024.00">
<g stroke-width="2.00" fill="none" stroke-linecap="butt">
<path stroke="#b6d4d7" vector-effect="non-scaling-stroke" d="
  M 657.14 312.81
  C 652.79 283.92 629.40 261.17 600.43 257.29
  C 591.56 256.10 579.76 255.74 569.55 256.07
  A 1.64 1.64 0.0 0 0 567.97 257.71
  Q 567.95 306.50 567.85 355.50
  C 567.84 361.86 567.22 367.12 570.02 372.48
  Q 604.81 439.17 639.61 505.85
  Q 647.42 520.82 655.91 535.40
  Q 656.17 535.85 656.54 536.02
  Q 657.15 536.31 657.50 536.02
  A 1.55 1.33 72.9 0 0 657.99 534.89
  Q 658.03 433.52 657.98 332.75
  Q 657.97 318.28 657.14 312.81"
/>
<path stroke="#8e97a3" vector-effect="non-scaling-stroke" d="
  M 575.12 626.62
  C 584.06 635.98 595.32 641.10 608.07 643.59
  Q 622.53 646.41 635.59 646.75
  C 640.16 646.86 645.32 647.69 650.23 647.53
  A 0.86 0.86 0.0 0 0 650.94 646.23
  Q 636.01 621.68 622.24 596.58
  Q 569.69 500.82 517.93 404.63
  Q 513.84 397.02 508.32 387.09
  Q 488.43 351.28 469.72 314.85
  Q 463.56 302.87 458.72 296.02
  C 447.72 280.45 431.91 272.02 413.25 268.28
  Q 401.02 265.83 389.23 265.57
  Q 384.02 265.46 376.50 266.53
  Q 375.66 266.65 376.23 267.29
  L 377.49 268.68
  A 0.45 0.38 13.7 0 1 377.57 268.79
  Q 444.79 392.86 512.17 516.85
  C 527.55 545.14 543.76 573.12 557.95 602.02
  Q 564.65 615.66 575.12 626.62"
/>
<path stroke="#8dd1c7" vector-effect="non-scaling-stroke" d="
  M 394.65 424.40
  Q 382.90 401.69 370.64 379.24
  C 369.87 377.83 369.46 375.61 368.33 374.14
  A 0.62 0.62 0.0 0 0 367.21 374.52
  Q 367.21 471.23 367.25 567.75
  Q 367.26 585.94 367.41 587.73
  C 371.00 630.51 413.04 656.81 452.98 653.57
  Q 455.14 653.39 455.11 651.22
  Q 454.62 620.82 455.44 590.99
  C 455.86 575.80 455.28 561.01 455.05 546.00
  Q 454.97 540.85 452.31 535.73
  Q 423.44 480.09 394.65 424.40"
/>
<path stroke="#808080" vector-effect="non-scaling-stroke" d="
  M 568.12 696.60
  C 571.75 698.01 577.44 701.37 581.22 699.23
  A 1.24 1.22 76.3 0 0 581.84 698.19
  L 582.05 691.55
  Q 582.06 691.03 581.55 691.03
  L 577.62 691.02
  Q 577.01 691.02 577.01 691.63
  L 576.99 694.03
  Q 576.98 694.75 576.32 694.47
  C 572.33 692.78 568.43 690.38 563.78 691.39
  A 0.88 0.87 2.2 0 0 563.13 691.98
  Q 561.95 695.63 562.46 699.52
  Q 562.52 700.00 563.01 700.00
  L 567.26 699.99
  Q 567.77 699.99 567.75 699.49
  L 567.63 696.95
  Q 567.60 696.40 568.12 696.60"
/>
<path stroke="#808080" vector-effect="non-scaling-stroke" d="
  M 455.38 767.27
  A 0.38 0.38 0.0 0 1 455.00 766.89
  L 455.00 703.77
  A 0.38 0.38 0.0 0 0 454.62 703.39
  L 448.83 703.40
  A 0.38 0.38 0.0 0 0 448.45 703.78
  L 448.46 772.62
  A 0.38 0.38 0.0 0 0 448.84 773.00
  L 470.62 773.00
  A 0.38 0.38 0.0 0 0 471.00 772.62
  L 471.00 767.65
  A 0.38 0.38 0.0 0 0 470.62 767.27
  L 455.38 767.27"
/>
<path stroke="#808080" vector-effect="non-scaling-stroke" d="
  M 500.99 767.28
  L 486.25 767.27
  Q 485.73 767.27 485.73 766.75
  L 485.73 703.93
  Q 485.73 703.39 485.18 703.39
  L 479.66 703.40
  Q 479.09 703.40 479.09 703.97
  Q 479.13 736.11 479.21 768.25
  Q 479.22 772.96 483.50 772.98
  Q 492.53 773.02 501.55 773.00
  C 505.45 772.99 508.00 772.39 508.00 767.99
  Q 508.01 735.97 508.00 703.90
  Q 508.00 703.38 507.47 703.38
  L 502.80 703.42
  Q 501.52 703.42 501.52 704.70
  L 501.52 766.75
  Q 501.52 767.28 500.99 767.28"
/>
<path stroke="#808080" vector-effect="non-scaling-stroke" d="
  M 604.45 709.79
  A 0.31 0.31 0.0 0 1 604.76 709.48
  L 620.43 709.52
  A 0.31 0.31 0.0 0 0 620.74 709.21
  L 620.75 703.72
  A 0.31 0.31 0.0 0 0 620.44 703.41
  L 598.31 703.42
  A 0.31 0.31 0.0 0 0 598.00 703.73
  L 598.00 772.69
  A 0.31 0.31 0.0 0 0 598.31 773.00
  L 620.58 773.00
  A 0.31 0.31 0.0 0 0 620.89 772.69
  L 620.91 767.57
  A 0.31 0.31 0.0 0 0 620.60 767.26
  L 604.78 767.28
  A 0.31 0.31 0.0 0 1 604.47 766.97
  L 604.47 741.09
  A 0.31 0.31 0.0 0 1 604.78 740.78
  L 618.69 740.78
  A 0.31 0.31 0.0 0 0 619.00 740.47
  L 619.00 735.31
  A 0.31 0.31 0.0 0 0 618.69 735.00
  L 604.78 735.00
  A 0.31 0.31 0.0 0 1 604.47 734.69
  L 604.45 709.79"
/>
<path stroke="#808080" vector-effect="non-scaling-stroke" d="
  M 391.17 709.96
  L 391.15 724.29
  Q 391.15 724.93 391.79 724.93
  L 397.30 724.92
  Q 397.77 724.92 397.77 724.45
  L 397.74 708.09
  A 4.65 4.64 -0.1 0 0 393.09 703.46
  L 374.98 703.46
  A 4.81 4.80 90.0 0 0 370.18 708.27
  L 370.19 723.73
  A 5.81 5.77 -65.1 0 0 371.54 727.45
  L 390.13 749.74
  A 4.78 4.71 25.5 0 1 391.24 752.81
  L 391.18 766.80
  Q 391.17 767.27 390.70 767.27
  L 377.24 767.28
  Q 376.70 767.28 376.70 766.74
  L 376.71 750.72
  Q 376.71 750.23 376.22 750.23
  L 370.52 750.24
  Q 370.03 750.25 370.03 750.73
  L 370.19 768.95
  A 4.05 4.05 0.0 0 0 374.20 772.97
  Q 383.32 773.05 392.27 772.97
  C 396.51 772.93 397.56 771.18 397.66 767.09
  C 397.77 762.73 398.86 750.50 396.21 747.29
  Q 387.17 736.31 377.52 724.90
  A 3.72 3.71 24.9 0 1 376.64 722.50
  L 376.68 710.09
  Q 376.68 709.50 377.27 709.50
  L 390.71 709.50
  Q 391.17 709.50 391.17 709.96"
/>
<path stroke="#808080" vector-effect="non-scaling-stroke" d="
  M 437.79 708.28
  A 4.79 4.79 0.0 0 0 433.00 703.49
  L 413.04 703.49
  A 4.79 4.79 0.0 0 0 408.25 708.28
  L 408.25 768.24
  A 4.79 4.79 0.0 0 0 413.04 773.03
  L 433.00 773.03
  A 4.79 4.79 0.0 0 0 437.79 768.24
  L 437.79 708.28"
/>
<path stroke="#808080" vector-effect="non-scaling-stroke" d="
  M 525.53 766.78
  L 525.54 709.98
  Q 525.54 709.50 526.02 709.50
  L 539.91 709.50
  Q 540.33 709.50 540.33 709.91
  L 540.30 724.49
  Q 540.30 724.93 540.74 724.93
  L 546.54 724.93
  Q 547.01 724.93 547.01 724.46
  L 546.91 708.03
  A 4.56 4.55 0.3 0 0 542.42 703.50
  Q 534.14 703.36 525.70 703.51
  C 521.55 703.58 519.04 704.81 519.04 709.24
  Q 519.02 736.80 519.05 764.35
  C 519.05 768.99 518.60 773.09 524.24 773.04
  Q 528.16 773.01 529.78 772.99
  Q 530.35 772.98 530.28 773.54
  Q 529.48 779.80 535.72 780.91
  Q 536.25 781.00 536.25 781.54
  L 536.24 785.38
  Q 536.23 786.00 535.62 786.00
  L 530.26 786.00
  Q 529.76 786.00 529.77 785.50
  L 529.85 781.88
  Q 529.86 781.27 529.25 781.27
  L 525.49 781.31
  A 0.80 0.80 0.0 0 0 524.70 781.97
  Q 524.07 785.68 525.40 789.16
  A 1.05 1.02 -3.1 0 0 526.13 789.80
  Q 533.05 791.42 539.96 789.79
  Q 540.35 789.70 540.49 789.34
  C 542.14 785.16 542.47 780.03 538.33 777.27
  A 0.70 0.63 66.6 0 0 538.07 777.15
  Q 535.03 776.52 535.49 773.51
  Q 535.56 773.06 536.01 773.05
  C 540.42 772.88 546.72 774.62 546.86 767.90
  Q 547.04 759.33 546.97 750.71
  Q 546.97 750.23 546.48 750.23
  L 540.78 750.25
  Q 540.31 750.25 540.31 750.72
  L 540.33 766.85
  Q 540.33 767.27 539.90 767.27
  L 526.03 767.27
  Q 525.53 767.27 525.53 766.78"
/>
<path stroke="#808080" vector-effect="non-scaling-stroke" d="
  M 586.95 708.44
  A 4.98 4.98 0.0 0 0 581.97 703.46
  L 562.35 703.46
  A 4.98 4.98 0.0 0 0 557.37 708.44
  L 557.37 768.04
  A 4.98 4.98 0.0 0 0 562.35 773.02
  L 581.97 773.02
  A 4.98 4.98 0.0 0 0 586.95 768.04
  L 586.95 708.44"
/>
<path stroke="#808080" vector-effect="non-scaling-stroke" d="
  M 651.00 710.00
  L 651.00 724.34
  A 0.59 0.59 0.0 0 0 651.59 724.93
  L 656.99 724.91
  Q 657.64 724.91 657.63 724.26
  L 657.59 708.29
  A 4.80 4.79 0.6 0 0 652.89 703.51
  Q 644.95 703.34 636.50 703.51
  C 632.95 703.58 630.20 704.67 630.02 708.49
  Q 629.82 713.07 630.12 723.56
  C 630.16 725.10 630.92 726.91 631.79 727.96
  Q 641.26 739.30 650.24 750.25
  A 3.54 3.52 -64.7 0 1 651.05 752.53
  L 650.99 766.76
  Q 650.99 767.27 650.49 767.27
  L 637.01 767.28
  Q 636.50 767.28 636.50 766.76
  L 636.51 750.75
  Q 636.51 750.23 636.00 750.23
  L 630.53 750.25
  Q 630.05 750.25 630.04 750.74
  Q 629.90 759.12 630.06 767.53
  C 630.13 771.14 631.29 772.92 635.01 772.96
  Q 643.75 773.06 652.51 772.94
  Q 657.09 772.87 657.43 768.50
  Q 657.84 763.13 657.55 752.70
  C 657.46 749.50 656.53 747.96 654.61 745.61
  Q 645.89 734.93 636.86 724.39
  Q 636.51 723.99 636.51 723.45
  L 636.49 710.00
  Q 636.49 709.49 637.00 709.50
  L 650.50 709.50
  Q 651.00 709.50 651.00 710.00"
/>
<path stroke="#808080" vector-effect="non-scaling-stroke" d="
  M 431.27 709.76
  A 0.26 0.26 0.0 0 0 431.01 709.50
  L 415.03 709.50
  A 0.26 0.26 0.0 0 0 414.77 709.76
  L 414.77 767.02
  A 0.26 0.26 0.0 0 0 415.03 767.28
  L 431.01 767.28
  A 0.26 0.26 0.0 0 0 431.27 767.02
  L 431.27 709.76"
/>
<path stroke="#808080" vector-effect="non-scaling-stroke" d="
  M 580.44 709.74
  A 0.26 0.26 0.0 0 0 580.18 709.48
  L 564.20 709.48
  A 0.26 0.26 0.0 0 0 563.94 709.74
  L 563.94 767.00
  A 0.26 0.26 0.0 0 0 564.20 767.26
  L 580.18 767.26
  A 0.26 0.26 0.0 0 0 580.44 767.00
  L 580.44 709.74"
/>
</g>
<path fill="#ffffff" d="
  M 0.00 0.00
  L 1024.00 0.00
  L 1024.00 1024.00
  L 0.00 1024.00
  L 0.00 0.00
  Z
  M 657.14 312.81
  C 652.79 283.92 629.40 261.17 600.43 257.29
  C 591.56 256.10 579.76 255.74 569.55 256.07
  A 1.64 1.64 0.0 0 0 567.97 257.71
  Q 567.95 306.50 567.85 355.50
  C 567.84 361.86 567.22 367.12 570.02 372.48
  Q 604.81 439.17 639.61 505.85
  Q 647.42 520.82 655.91 535.40
  Q 656.17 535.85 656.54 536.02
  Q 657.15 536.31 657.50 536.02
  A 1.55 1.33 72.9 0 0 657.99 534.89
  Q 658.03 433.52 657.98 332.75
  Q 657.97 318.28 657.14 312.81
  Z
  M 575.12 626.62
  C 584.06 635.98 595.32 641.10 608.07 643.59
  Q 622.53 646.41 635.59 646.75
  C 640.16 646.86 645.32 647.69 650.23 647.53
  A 0.86 0.86 0.0 0 0 650.94 646.23
  Q 636.01 621.68 622.24 596.58
  Q 569.69 500.82 517.93 404.63
  Q 513.84 397.02 508.32 387.09
  Q 488.43 351.28 469.72 314.85
  Q 463.56 302.87 458.72 296.02
  C 447.72 280.45 431.91 272.02 413.25 268.28
  Q 401.02 265.83 389.23 265.57
  Q 384.02 265.46 376.50 266.53
  Q 375.66 266.65 376.23 267.29
  L 377.49 268.68
  A 0.45 0.38 13.7 0 1 377.57 268.79
  Q 444.79 392.86 512.17 516.85
  C 527.55 545.14 543.76 573.12 557.95 602.02
  Q 564.65 615.66 575.12 626.62
  Z
  M 394.65 424.40
  Q 382.90 401.69 370.64 379.24
  C 369.87 377.83 369.46 375.61 368.33 374.14
  A 0.62 0.62 0.0 0 0 367.21 374.52
  Q 367.21 471.23 367.25 567.75
  Q 367.26 585.94 367.41 587.73
  C 371.00 630.51 413.04 656.81 452.98 653.57
  Q 455.14 653.39 455.11 651.22
  Q 454.62 620.82 455.44 590.99
  C 455.86 575.80 455.28 561.01 455.05 546.00
  Q 454.97 540.85 452.31 535.73
  Q 423.44 480.09 394.65 424.40
  Z
  M 568.12 696.60
  C 571.75 698.01 577.44 701.37 581.22 699.23
  A 1.24 1.22 76.3 0 0 581.84 698.19
  L 582.05 691.55
  Q 582.06 691.03 581.55 691.03
  L 577.62 691.02
  Q 577.01 691.02 577.01 691.63
  L 576.99 694.03
  Q 576.98 694.75 576.32 694.47
  C 572.33 692.78 568.43 690.38 563.78 691.39
  A 0.88 0.87 2.2 0 0 563.13 691.98
  Q 561.95 695.63 562.46 699.52
  Q 562.52 700.00 563.01 700.00
  L 567.26 699.99
  Q 567.77 699.99 567.75 699.49
  L 567.63 696.95
  Q 567.60 696.40 568.12 696.60
  Z
  M 455.38 767.27
  A 0.38 0.38 0.0 0 1 455.00 766.89
  L 455.00 703.77
  A 0.38 0.38 0.0 0 0 454.62 703.39
  L 448.83 703.40
  A 0.38 0.38 0.0 0 0 448.45 703.78
  L 448.46 772.62
  A 0.38 0.38 0.0 0 0 448.84 773.00
  L 470.62 773.00
  A 0.38 0.38 0.0 0 0 471.00 772.62
  L 471.00 767.65
  A 0.38 0.38 0.0 0 0 470.62 767.27
  L 455.38 767.27
  Z
  M 500.99 767.28
  L 486.25 767.27
  Q 485.73 767.27 485.73 766.75
  L 485.73 703.93
  Q 485.73 703.39 485.18 703.39
  L 479.66 703.40
  Q 479.09 703.40 479.09 703.97
  Q 479.13 736.11 479.21 768.25
  Q 479.22 772.96 483.50 772.98
  Q 492.53 773.02 501.55 773.00
  C 505.45 772.99 508.00 772.39 508.00 767.99
  Q 508.01 735.97 508.00 703.90
  Q 508.00 703.38 507.47 703.38
  L 502.80 703.42
  Q 501.52 703.42 501.52 704.70
  L 501.52 766.75
  Q 501.52 767.28 500.99 767.28
  Z
  M 604.45 709.79
  A 0.31 0.31 0.0 0 1 604.76 709.48
  L 620.43 709.52
  A 0.31 0.31 0.0 0 0 620.74 709.21
  L 620.75 703.72
  A 0.31 0.31 0.0 0 0 620.44 703.41
  L 598.31 703.42
  A 0.31 0.31 0.0 0 0 598.00 703.73
  L 598.00 772.69
  A 0.31 0.31 0.0 0 0 598.31 773.00
  L 620.58 773.00
  A 0.31 0.31 0.0 0 0 620.89 772.69
  L 620.91 767.57
  A 0.31 0.31 0.0 0 0 620.60 767.26
  L 604.78 767.28
  A 0.31 0.31 0.0 0 1 604.47 766.97
  L 604.47 741.09
  A 0.31 0.31 0.0 0 1 604.78 740.78
  L 618.69 740.78
  A 0.31 0.31 0.0 0 0 619.00 740.47
  L 619.00 735.31
  A 0.31 0.31 0.0 0 0 618.69 735.00
  L 604.78 735.00
  A 0.31 0.31 0.0 0 1 604.47 734.69
  L 604.45 709.79
  Z
  M 391.17 709.96
  L 391.15 724.29
  Q 391.15 724.93 391.79 724.93
  L 397.30 724.92
  Q 397.77 724.92 397.77 724.45
  L 397.74 708.09
  A 4.65 4.64 -0.1 0 0 393.09 703.46
  L 374.98 703.46
  A 4.81 4.80 90.0 0 0 370.18 708.27
  L 370.19 723.73
  A 5.81 5.77 -65.1 0 0 371.54 727.45
  L 390.13 749.74
  A 4.78 4.71 25.5 0 1 391.24 752.81
  L 391.18 766.80
  Q 391.17 767.27 390.70 767.27
  L 377.24 767.28
  Q 376.70 767.28 376.70 766.74
  L 376.71 750.72
  Q 376.71 750.23 376.22 750.23
  L 370.52 750.24
  Q 370.03 750.25 370.03 750.73
  L 370.19 768.95
  A 4.05 4.05 0.0 0 0 374.20 772.97
  Q 383.32 773.05 392.27 772.97
  C 396.51 772.93 397.56 771.18 397.66 767.09
  C 397.77 762.73 398.86 750.50 396.21 747.29
  Q 387.17 736.31 377.52 724.90
  A 3.72 3.71 24.9 0 1 376.64 722.50
  L 376.68 710.09
  Q 376.68 709.50 377.27 709.50
  L 390.71 709.50
  Q 391.17 709.50 391.17 709.96
  Z
  M 437.79 708.28
  A 4.79 4.79 0.0 0 0 433.00 703.49
  L 413.04 703.49
  A 4.79 4.79 0.0 0 0 408.25 708.28
  L 408.25 768.24
  A 4.79 4.79 0.0 0 0 413.04 773.03
  L 433.00 773.03
  A 4.79 4.79 0.0 0 0 437.79 768.24
  L 437.79 708.28
  Z
  M 525.53 766.78
  L 525.54 709.98
  Q 525.54 709.50 526.02 709.50
  L 539.91 709.50
  Q 540.33 709.50 540.33 709.91
  L 540.30 724.49
  Q 540.30 724.93 540.74 724.93
  L 546.54 724.93
  Q 547.01 724.93 547.01 724.46
  L 546.91 708.03
  A 4.56 4.55 0.3 0 0 542.42 703.50
  Q 534.14 703.36 525.70 703.51
  C 521.55 703.58 519.04 704.81 519.04 709.24
  Q 519.02 736.80 519.05 764.35
  C 519.05 768.99 518.60 773.09 524.24 773.04
  Q 528.16 773.01 529.78 772.99
  Q 530.35 772.98 530.28 773.54
  Q 529.48 779.80 535.72 780.91
  Q 536.25 781.00 536.25 781.54
  L 536.24 785.38
  Q 536.23 786.00 535.62 786.00
  L 530.26 786.00
  Q 529.76 786.00 529.77 785.50
  L 529.85 781.88
  Q 529.86 781.27 529.25 781.27
  L 525.49 781.31
  A 0.80 0.80 0.0 0 0 524.70 781.97
  Q 524.07 785.68 525.40 789.16
  A 1.05 1.02 -3.1 0 0 526.13 789.80
  Q 533.05 791.42 539.96 789.79
  Q 540.35 789.70 540.49 789.34
  C 542.14 785.16 542.47 780.03 538.33 777.27
  A 0.70 0.63 66.6 0 0 538.07 777.15
  Q 535.03 776.52 535.49 773.51
  Q 535.56 773.06 536.01 773.05
  C 540.42 772.88 546.72 774.62 546.86 767.90
  Q 547.04 759.33 546.97 750.71
  Q 546.97 750.23 546.48 750.23
  L 540.78 750.25
  Q 540.31 750.25 540.31 750.72
  L 540.33 766.85
  Q 540.33 767.27 539.90 767.27
  L 526.03 767.27
  Q 525.53 767.27 525.53 766.78
  Z
  M 586.95 708.44
  A 4.98 4.98 0.0 0 0 581.97 703.46
  L 562.35 703.46
  A 4.98 4.98 0.0 0 0 557.37 708.44
  L 557.37 768.04
  A 4.98 4.98 0.0 0 0 562.35 773.02
  L 581.97 773.02
  A 4.98 4.98 0.0 0 0 586.95 768.04
  L 586.95 708.44
  Z
  M 651.00 710.00
  L 651.00 724.34
  A 0.59 0.59 0.0 0 0 651.59 724.93
  L 656.99 724.91
  Q 657.64 724.91 657.63 724.26
  L 657.59 708.29
  A 4.80 4.79 0.6 0 0 652.89 703.51
  Q 644.95 703.34 636.50 703.51
  C 632.95 703.58 630.20 704.67 630.02 708.49
  Q 629.82 713.07 630.12 723.56
  C 630.16 725.10 630.92 726.91 631.79 727.96
  Q 641.26 739.30 650.24 750.25
  A 3.54 3.52 -64.7 0 1 651.05 752.53
  L 650.99 766.76
  Q 650.99 767.27 650.49 767.27
  L 637.01 767.28
  Q 636.50 767.28 636.50 766.76
  L 636.51 750.75
  Q 636.51 750.23 636.00 750.23
  L 630.53 750.25
  Q 630.05 750.25 630.04 750.74
  Q 629.90 759.12 630.06 767.53
  C 630.13 771.14 631.29 772.92 635.01 772.96
  Q 643.75 773.06 652.51 772.94
  Q 657.09 772.87 657.43 768.50
  Q 657.84 763.13 657.55 752.70
  C 657.46 749.50 656.53 747.96 654.61 745.61
  Q 645.89 734.93 636.86 724.39
  Q 636.51 723.99 636.51 723.45
  L 636.49 710.00
  Q 636.49 709.49 637.00 709.50
  L 650.50 709.50
  Q 651.00 709.50 651.00 710.00
  Z"
/>
<path fill="#6da8ae" d="
  M 600.43 257.29
  C 629.40 261.17 652.79 283.92 657.14 312.81
  Q 657.97 318.28 657.98 332.75
  Q 658.03 433.52 657.99 534.89
  A 1.55 1.33 72.9 0 1 657.50 536.02
  Q 657.15 536.31 656.54 536.02
  Q 656.17 535.85 655.91 535.40
  Q 647.42 520.82 639.61 505.85
  Q 604.81 439.17 570.02 372.48
  C 567.22 367.12 567.84 361.86 567.85 355.50
  Q 567.95 306.50 567.97 257.71
  A 1.64 1.64 0.0 0 1 569.55 256.07
  C 579.76 255.74 591.56 256.10 600.43 257.29
  Z"
/>
<path fill="#1c2f47" d="
  M 608.07 643.59
  C 595.32 641.10 584.06 635.98 575.12 626.62
  Q 564.65 615.66 557.95 602.02
  C 543.76 573.12 527.55 545.14 512.17 516.85
  Q 444.79 392.86 377.57 268.79
  A 0.45 0.38 13.7 0 0 377.49 268.68
  L 376.23 267.29
  Q 375.66 266.65 376.50 266.53
  Q 384.02 265.46 389.23 265.57
  Q 401.02 265.83 413.25 268.28
  C 431.91 272.02 447.72 280.45 458.72 296.02
  Q 463.56 302.87 469.72 314.85
  Q 488.43 351.28 508.32 387.09
  Q 513.84 397.02 517.93 404.63
  Q 569.69 500.82 622.24 596.58
  Q 636.01 621.68 650.94 646.23
  A 0.86 0.86 0.0 0 1 650.23 647.53
  C 645.32 647.69 640.16 646.86 635.59 646.75
  Q 622.53 646.41 608.07 643.59
  Z"
/>
<path fill="#1aa38f" d="
  M 394.65 424.40
  Q 423.44 480.09 452.31 535.73
  Q 454.97 540.85 455.05 546.00
  C 455.28 561.01 455.86 575.80 455.44 590.99
  Q 454.62 620.82 455.11 651.22
  Q 455.14 653.39 452.98 653.57
  C 413.04 656.81 371.00 630.51 367.41 587.73
  Q 367.26 585.94 367.25 567.75
  Q 367.21 471.23 367.21 374.52
  A 0.62 0.62 0.0 0 1 368.33 374.14
  C 369.46 375.61 369.87 377.83 370.64 379.24
  Q 382.90 401.69 394.65 424.40
  Z"
/>
<path fill="#000000" d="
  M 567.63 696.95
  L 567.75 699.49
  Q 567.77 699.99 567.26 699.99
  L 563.01 700.00
  Q 562.52 700.00 562.46 699.52
  Q 561.95 695.63 563.13 691.98
  A 0.88 0.87 2.2 0 1 563.78 691.39
  C 568.43 690.38 572.33 692.78 576.32 694.47
  Q 576.98 694.75 576.99 694.03
  L 577.01 691.63
  Q 577.01 691.02 577.62 691.02
  L 581.55 691.03
  Q 582.06 691.03 582.05 691.55
  L 581.84 698.19
  A 1.24 1.22 76.3 0 1 581.22 699.23
  C 577.44 701.37 571.75 698.01 568.12 696.60
  Q 567.60 696.40 567.63 696.95
  Z"
/>
<path fill="#000000" d="
  M 455.38 767.27
  L 470.62 767.27
  A 0.38 0.38 0.0 0 1 471.00 767.65
  L 471.00 772.62
  A 0.38 0.38 0.0 0 1 470.62 773.00
  L 448.84 773.00
  A 0.38 0.38 0.0 0 1 448.46 772.62
  L 448.45 703.78
  A 0.38 0.38 0.0 0 1 448.83 703.40
  L 454.62 703.39
  A 0.38 0.38 0.0 0 1 455.00 703.77
  L 455.00 766.89
  A 0.38 0.38 0.0 0 0 455.38 767.27
  Z"
/>
<path fill="#000000" d="
  M 501.52 766.75
  L 501.52 704.70
  Q 501.52 703.42 502.80 703.42
  L 507.47 703.38
  Q 508.00 703.38 508.00 703.90
  Q 508.01 735.97 508.00 767.99
  C 508.00 772.39 505.45 772.99 501.55 773.00
  Q 492.53 773.02 483.50 772.98
  Q 479.22 772.96 479.21 768.25
  Q 479.13 736.11 479.09 703.97
  Q 479.09 703.40 479.66 703.40
  L 485.18 703.39
  Q 485.73 703.39 485.73 703.93
  L 485.73 766.75
  Q 485.73 767.27 486.25 767.27
  L 500.99 767.28
  Q 501.52 767.28 501.52 766.75
  Z"
/>
<path fill="#000000" d="
  M 604.45 709.79
  L 604.47 734.69
  A 0.31 0.31 0.0 0 0 604.78 735.00
  L 618.69 735.00
  A 0.31 0.31 0.0 0 1 619.00 735.31
  L 619.00 740.47
  A 0.31 0.31 0.0 0 1 618.69 740.78
  L 604.78 740.78
  A 0.31 0.31 0.0 0 0 604.47 741.09
  L 604.47 766.97
  A 0.31 0.31 0.0 0 0 604.78 767.28
  L 620.60 767.26
  A 0.31 0.31 0.0 0 1 620.91 767.57
  L 620.89 772.69
  A 0.31 0.31 0.0 0 1 620.58 773.00
  L 598.31 773.00
  A 0.31 0.31 0.0 0 1 598.00 772.69
  L 598.00 703.73
  A 0.31 0.31 0.0 0 1 598.31 703.42
  L 620.44 703.41
  A 0.31 0.31 0.0 0 1 620.75 703.72
  L 620.74 709.21
  A 0.31 0.31 0.0 0 1 620.43 709.52
  L 604.76 709.48
  A 0.31 0.31 0.0 0 0 604.45 709.79
  Z"
/>
<path fill="#000000" d="
  M 390.71 709.50
  L 377.27 709.50
  Q 376.68 709.50 376.68 710.09
  L 376.64 722.50
  A 3.72 3.71 24.9 0 0 377.52 724.90
  Q 387.17 736.31 396.21 747.29
  C 398.86 750.50 397.77 762.73 397.66 767.09
  C 397.56 771.18 396.51 772.93 392.27 772.97
  Q 383.32 773.05 374.20 772.97
  A 4.05 4.05 0.0 0 1 370.19 768.95
  L 370.03 750.73
  Q 370.03 750.25 370.52 750.24
  L 376.22 750.23
  Q 376.71 750.23 376.71 750.72
  L 376.70 766.74
  Q 376.70 767.28 377.24 767.28
  L 390.70 767.27
  Q 391.17 767.27 391.18 766.80
  L 391.24 752.81
  A 4.78 4.71 25.5 0 0 390.13 749.74
  L 371.54 727.45
  A 5.81 5.77 -65.1 0 1 370.19 723.73
  L 370.18 708.27
  A 4.81 4.80 90.0 0 1 374.98 703.46
  L 393.09 703.46
  A 4.65 4.64 -0.1 0 1 397.74 708.09
  L 397.77 724.45
  Q 397.77 724.92 397.30 724.92
  L 391.79 724.93
  Q 391.15 724.93 391.15 724.29
  L 391.17 709.96
  Q 391.17 709.50 390.71 709.50
  Z"
/>
<path fill="#000000" d="
  M 437.79 768.24
  A 4.79 4.79 0.0 0 1 433.00 773.03
  L 413.04 773.03
  A 4.79 4.79 0.0 0 1 408.25 768.24
  L 408.25 708.28
  A 4.79 4.79 0.0 0 1 413.04 703.49
  L 433.00 703.49
  A 4.79 4.79 0.0 0 1 437.79 708.28
  L 437.79 768.24
  Z
  M 431.27 709.76
  A 0.26 0.26 0.0 0 0 431.01 709.50
  L 415.03 709.50
  A 0.26 0.26 0.0 0 0 414.77 709.76
  L 414.77 767.02
  A 0.26 0.26 0.0 0 0 415.03 767.28
  L 431.01 767.28
  A 0.26 0.26 0.0 0 0 431.27 767.02
  L 431.27 709.76
  Z"
/>
<path fill="#000000" d="
  M 526.03 767.27
  L 539.90 767.27
  Q 540.33 767.27 540.33 766.85
  L 540.31 750.72
  Q 540.31 750.25 540.78 750.25
  L 546.48 750.23
  Q 546.97 750.23 546.97 750.71
  Q 547.04 759.33 546.86 767.90
  C 546.72 774.62 540.42 772.88 536.01 773.05
  Q 535.56 773.06 535.49 773.51
  Q 535.03 776.52 538.07 777.15
  A 0.70 0.63 66.6 0 1 538.33 777.27
  C 542.47 780.03 542.14 785.16 540.49 789.34
  Q 540.35 789.70 539.96 789.79
  Q 533.05 791.42 526.13 789.80
  A 1.05 1.02 -3.1 0 1 525.40 789.16
  Q 524.07 785.68 524.70 781.97
  A 0.80 0.80 0.0 0 1 525.49 781.31
  L 529.25 781.27
  Q 529.86 781.27 529.85 781.88
  L 529.77 785.50
  Q 529.76 786.00 530.26 786.00
  L 535.62 786.00
  Q 536.23 786.00 536.24 785.38
  L 536.25 781.54
  Q 536.25 781.00 535.72 780.91
  Q 529.48 779.80 530.28 773.54
  Q 530.35 772.98 529.78 772.99
  Q 528.16 773.01 524.24 773.04
  C 518.60 773.09 519.05 768.99 519.05 764.35
  Q 519.02 736.80 519.04 709.24
  C 519.04 704.81 521.55 703.58 525.70 703.51
  Q 534.14 703.36 542.42 703.50
  A 4.56 4.55 0.3 0 1 546.91 708.03
  L 547.01 724.46
  Q 547.01 724.93 546.54 724.93
  L 540.74 724.93
  Q 540.30 724.93 540.30 724.49
  L 540.33 709.91
  Q 540.33 709.50 539.91 709.50
  L 526.02 709.50
  Q 525.54 709.50 525.54 709.98
  L 525.53 766.78
  Q 525.53 767.27 526.03 767.27
  Z"
/>
<path fill="#000000" d="
  M 586.95 768.04
  A 4.98 4.98 0.0 0 1 581.97 773.02
  L 562.35 773.02
  A 4.98 4.98 0.0 0 1 557.37 768.04
  L 557.37 708.44
  A 4.98 4.98 0.0 0 1 562.35 703.46
  L 581.97 703.46
  A 4.98 4.98 0.0 0 1 586.95 708.44
  L 586.95 768.04
  Z
  M 580.44 709.74
  A 0.26 0.26 0.0 0 0 580.18 709.48
  L 564.20 709.48
  A 0.26 0.26 0.0 0 0 563.94 709.74
  L 563.94 767.00
  A 0.26 0.26 0.0 0 0 564.20 767.26
  L 580.18 767.26
  A 0.26 0.26 0.0 0 0 580.44 767.00
  L 580.44 709.74
  Z"
/>
<path fill="#000000" d="
  M 650.50 709.50
  L 637.00 709.50
  Q 636.49 709.49 636.49 710.00
  L 636.51 723.45
  Q 636.51 723.99 636.86 724.39
  Q 645.89 734.93 654.61 745.61
  C 656.53 747.96 657.46 749.50 657.55 752.70
  Q 657.84 763.13 657.43 768.50
  Q 657.09 772.87 652.51 772.94
  Q 643.75 773.06 635.01 772.96
  C 631.29 772.92 630.13 771.14 630.06 767.53
  Q 629.90 759.12 630.04 750.74
  Q 630.05 750.25 630.53 750.25
  L 636.00 750.23
  Q 636.51 750.23 636.51 750.75
  L 636.50 766.76
  Q 636.50 767.28 637.01 767.28
  L 650.49 767.27
  Q 650.99 767.27 650.99 766.76
  L 651.05 752.53
  A 3.54 3.52 -64.7 0 0 650.24 750.25
  Q 641.26 739.30 631.79 727.96
  C 630.92 726.91 630.16 725.10 630.12 723.56
  Q 629.82 713.07 630.02 708.49
  C 630.20 704.67 632.95 703.58 636.50 703.51
  Q 644.95 703.34 652.89 703.51
  A 4.80 4.79 0.6 0 1 657.59 708.29
  L 657.63 724.26
  Q 657.64 724.91 656.99 724.91
  L 651.59 724.93
  A 0.59 0.59 0.0 0 1 651.00 724.34
  L 651.00 710.00
  Q 651.00 709.50 650.50 709.50
  Z"
/>
<rect fill="#ffffff" x="563.94" y="709.48" width="16.50" height="57.78" rx="0.26"/>
<rect fill="#ffffff" x="414.77" y="709.50" width="16.50" height="57.78" rx="0.26"/>
</svg>
